<?xml version="1.0" encoding="utf-8"?>
<!-- Generator: Adobe Illustrator 21.0.1, SVG Export Plug-In . SVG Version: 6.00 Build 0)  -->
<svg version="1.1" id="Слой_1" xmlns="http://www.w3.org/2000/svg" xmlns:xlink="http://www.w3.org/1999/xlink" x="0px" y="0px"
	 viewBox="0 0 841.9 177.1" style="enable-background:new 0 0 841.9 177.1;" xml:space="preserve">
<style type="text/css">
	.st0{fill:#CC0000;}
</style>
<g>
	<path class="st0" d="M274.8,118.9h-12.2l-2.3-51.3l-9.9,51.3h-11.6l13.1-61.4h18.3l1.9,43l21.3-43H312l-13.1,61.4h-11.7l12.3-51
		L274.8,118.9z"/>
	<path class="st0" d="M328,58h12.6l-7,32.8l-1.7,8.1c-0.1,0.7-0.2,1.3-0.2,1.9c0,2.4,0.9,4.4,2.7,5.9c1.8,1.6,4.4,2.3,7.7,2.3
		c3,0,5.6-0.6,7.5-1.7c2-1.1,3.5-2.8,4.6-5c1.1-2.2,2.2-6,3.3-11.3l7-33h12.6l-7,33c-1.5,6.9-3.2,12.3-5.1,15.9
		c-1.9,3.7-4.8,6.7-8.8,9c-3.9,2.3-8.9,3.5-14.8,3.5c-7.2,0-12.6-1.7-16.4-5.2c-3.8-3.4-5.7-7.9-5.7-13.3c0-1.1,0.1-2.3,0.3-3.7
		c0.1-0.9,0.6-3.4,1.5-7.5L328,58z"/>
	<path class="st0" d="M383.7,98.7l11.8-0.6c0.2,3.7,0.8,6.2,1.9,7.5c1.8,2.1,5.2,3.2,10.1,3.2c4.1,0,7-0.7,8.8-2.1
		c1.8-1.4,2.7-3.2,2.7-5.2c0-1.8-0.7-3.2-2.2-4.5c-1.1-0.9-3.9-2.3-8.6-4.3c-4.7-2-8.1-3.7-10.3-5c-2.2-1.3-3.9-3.1-5.1-5.2
		c-1.2-2.1-1.8-4.6-1.8-7.5c0-5,1.8-9.1,5.5-12.4c3.7-3.3,9-4.9,16-4.9c7.1,0,12.6,1.6,16.5,4.9c3.9,3.3,6,7.6,6.4,13L423.6,76
		c-0.3-2.8-1.3-5-3.1-6.5c-1.8-1.5-4.4-2.3-7.9-2.3c-3.4,0-5.9,0.6-7.4,1.8c-1.5,1.2-2.2,2.7-2.2,4.5c0,1.7,0.7,3.1,2,4.2
		c1.4,1.1,4.3,2.7,9,4.7c7,2.9,11.4,5.3,13.3,7.2c2.8,2.7,4.2,6.2,4.2,10.4c0,5.2-2.1,9.7-6.3,13.4c-4.2,3.7-10.1,5.6-17.6,5.6
		c-5.2,0-9.7-0.9-13.5-2.6c-3.8-1.7-6.5-4.1-8.1-7.2C384.3,106.1,383.6,102.6,383.7,98.7z"/>
	<path class="st0" d="M440.7,118.9l13.1-61.4h12.9l-13.1,61.4H440.7z"/>
	<path class="st0" d="M514.1,96.5l12.5,1.9c-2.4,6.7-6.1,11.8-11,15.3c-4.9,3.5-10.6,5.3-17.2,5.3c-7.4,0-13.2-2.2-17.3-6.6
		c-4.2-4.4-6.2-10.7-6.2-19c0-6.8,1.4-12.9,4.2-18.5c2.8-5.6,6.7-9.9,11.6-12.9c4.9-3,10.3-4.5,16.1-4.5c6.5,0,11.8,1.7,15.9,5.2
		c4,3.4,6.4,8.1,7.1,14.1l-11.9,1.1c-0.7-3.5-1.9-6-3.8-7.5c-1.9-1.6-4.4-2.3-7.5-2.3c-3.5,0-6.6,1-9.6,3.1c-3,2.1-5.4,5.3-7.2,9.6
		c-1.8,4.4-2.7,8.7-2.7,13.1c0,4.7,1.2,8.4,3.5,11c2.3,2.6,5.2,3.9,8.7,3.9c3.2,0,6.1-1,8.8-3.1C510.7,103.6,512.7,100.5,514.1,96.5
		z"/>
	<path class="st0" d="M535.6,118.9l13.1-61.4h12.8l-13.1,61.4H535.6z"/>
	<path class="st0" d="M605.6,105.3h-24.8l-7.5,13.6h-13.2l35.4-61.4h14.3l10.1,61.4h-12.2L605.6,105.3z M604,95.1l-3.6-24.7
		l-15.1,24.7H604z"/>
	<path class="st0" d="M679.5,118.9h-12l-16.9-41.3l-8.8,41.3h-12l13.1-61.4h12l16.9,41.1l8.7-41.1h11.9L679.5,118.9z"/>
	<path class="st0" d="M733.3,57.7h12.6l-7,32.8l-1.7,8.1c-0.1,0.7-0.2,1.3-0.2,1.9c0,2.4,0.9,4.4,2.7,5.9c1.8,1.6,4.3,2.3,7.7,2.3
		c3,0,5.6-0.6,7.5-1.7c2-1.1,3.5-2.8,4.6-5c1.1-2.2,2.2-6,3.3-11.3l7-33h12.6l-7,33c-1.5,6.9-3.2,12.3-5.1,15.9
		c-1.9,3.7-4.8,6.7-8.8,9c-3.9,2.3-8.9,3.5-14.8,3.5c-7.2,0-12.6-1.7-16.4-5.2c-3.8-3.4-5.7-7.9-5.7-13.3c0-1.1,0.1-2.3,0.3-3.7
		c0.1-0.9,0.6-3.4,1.5-7.5L733.3,57.7z"/>
	<path class="st0" d="M825,105.1h-24.8l-7.5,13.6h-13.2l35.4-61.4h14.3l10.2,61.4h-12.2L825,105.1z M823.5,94.9l-3.6-24.7
		l-15.1,24.7H823.5z"/>
	<circle class="st0" cx="700.1" cy="113.6" r="5.5"/>
	<path class="st0" d="M98.4,169.1c-25.5,0-48.3-11.9-63.2-30.4c-2.6,0.7-5.4,1.1-8.1,1.2c16,22,42,36.4,71.3,36.4
		c37.9,0,70.2-24,82.7-57.6c-2.9,1.5-6,2.8-9.3,3.8C158.8,150,130.8,169.1,98.4,169.1"/>
	<path class="st0" d="M17.5,89.9c0-0.6,0-1.2,0-1.7c0-44.7,36.3-81,81-81c44.7,0,81,36.3,81,81c0,6.1-0.7,12.1-2,17.8
		c2.8-1.6,5.5-3.4,8.2-5.1c0.6-4.1,0.9-8.4,0.9-12.7C186.6,39.5,147,0,98.4,0C49.8,0,10.3,39.5,10.3,88.1c0,1.7,0.1,3.3,0.1,5
		c0.7-0.4,1.4-0.9,2.2-1.2C14.2,91.1,15.8,90.4,17.5,89.9"/>
	<path class="st0" d="M12.5,107.5c1.5,6.6,3.7,12.9,6.6,18.9c2.2,1,4.5,1.5,7,1.5c0.6,0,1.2,0,1.8-0.1c-4.4-7.8-7.5-16.4-9.1-25.5
		C16.1,103.5,13.9,105.3,12.5,107.5"/>
	<path class="st0" d="M217.7,86.1l-9.3,5.7l-1.3-2.1L192,99c-1.1,0.7-1.6,2.1-1.4,3.4c-7.3,4.7-14.7,9.9-23.6,12.4
		c-2.9,0.8-5.8,1.2-8.8,1.2c-7.8,0-15.6-2.5-23.6-5.7c0.2-0.6,0.4-1.2,0.6-1.9c3-9.2,6.2-18.2,9-27.5c2.1-7.5,4-15,5.7-22.7
		c0.8-3.7,2.1-7.6,0.6-11.8c-3.2-9-11.7-11.1-20.2-11.1c-6.4,0-12.8,1.3-16.9,1.7c-12.2,1.4-26.5,4.3-35.3,13.6
		c-11,11.5-14.3,27.9-18.6,43.8c-0.8,2.7-1.6,5.5-2.5,8.2c0,0-0.1-0.1-0.1-0.1c-9.6-5-20.2-10.4-30.5-10.4c-4.1,0-8.2,0.9-12.3,3
		c-11.1,5.7-16.3,19.5-8.4,30.6c5.1,7,12.8,10.4,20.7,10.3c4.6,0,9.3-1.2,13.5-3.4c14.1-7.6,20.1-23,24.1-37.9
		c4.2-15.9,7.6-30.9,18.6-42.2c4.9-5.1,12.8-7,19.4-8.8c6.5-1.7,13.1-2.5,19.9-2.9c2.3-0.1,6.1-0.6,10-0.6c6.2-0.2,14.1,1.9,15,9.5
		c0.1,3.9-1.7,8.3-2.5,11.9c-3.6,15.2-8.7,31.6-14.1,46.2c0.1,0.1-4.1-2.2-9-4.7c-6.4-3.3-14.8-7.2-22.8-7.3
		c-5.3,0-10.3,1.4-14.9,4.9c-11.5,7.6-12,23.7,1.5,33.4c5.3,4.1,11.3,5.7,16.9,5.7c8.8,0,17.2-4.4,22.8-11c3.7-4.3,6.2-9.4,8.3-14.7
		c8.3,3.5,16.8,6.5,25.3,6.4c1,0,2,0,3-0.1c9.9-0.9,18.2-5.4,25.9-10.2c1.9-1.2,3.9-2.4,5.8-3.6c1.1,0.9,2.6,1.1,3.8,0.4l15.2-9.3
		l-1.3-2l9.3-5.7L217.7,86.1z M43.9,124.3c-5,4.4-11.3,7.2-17.8,7.2c-4.7,0-9.4-1.5-13.4-5c-10.5-9.1-6.5-23.1,5.1-28
		c3-1.3,6-1.8,9-1.8c9.5,0,19.4,5.2,27.9,9.7c0.3,0.1,0.5,0.2,0.8,0.3C52.9,113.4,49.3,119.5,43.9,124.3 M112.3,132.9
		c-3.2,1.6-6.8,2.4-10.4,2.5c-7,0-14-3-18.5-9.5c-8.4-11.5,0.1-22.1,10.7-24.5c1.8-0.5,3.7-0.7,5.6-0.7c9.7,0.5,29.2,11.5,29.3,11.4
		C125.5,120.7,120.9,128.5,112.3,132.9"/>
	
		<rect x="220.2" y="83.6" transform="matrix(0.8523 -0.523 0.523 0.8523 -12.1445 129.0388)" class="st0" width="4.5" height="4.8"/>
	<polygon class="st0" points="233.3,80.8 232.1,78.7 230,78.5 226.5,81.7 225.9,81 224.6,81.9 227.1,86 228.5,85.1 228.2,84.3 
		232.5,82.7 	"/>
</g>
</svg>
